# xmcd
#
# Track frame offsets: 
#        150
#        19071
#        32208
#        53370
#        71468
#        91228
#        107227
#        121720
#        139092
#        151928
#        169399
#        179267
#
# Disc length: 2741 seconds
#
# Revision: 0
# Processed by: cddbd v1.5.2PL0 Copyright (c) Steve Scherf et al.
# Submitted via: ExactAudioCopy v0.99pb4
#
DISCID=940ab30c
DTITLE=The Lonely H - Concrete Class
DYEAR=2009
DGENRE=
TTITLE0=Right Down To Me
TTITLE1=Cold Blues
TTITLE2=White Horse Tears
TTITLE3=Out West
TTITLE4=The Singer
TTITLE5=Diggin' A Hole
TTITLE6=Take Care
TTITLE7=Phoenix
TTITLE8=Other Side Of The Water
TTITLE9=Girl From Jersey
TTITLE10=The River
TTITLE11=Strike A Chord
EXTD=
EXTT0=
EXTT1=
EXTT2=
EXTT3=
EXTT4=
EXTT5=
EXTT6=
EXTT7=
EXTT8=
EXTT9=
EXTT10=
EXTT11=
PLAYORDER=
